<?xml version="1.0" encoding="utf-8"?>
<!-- Generator: Adobe Illustrator 16.0.4, SVG Export Plug-In . SVG Version: 6.00 Build 0)  -->
<!DOCTYPE svg PUBLIC "-//W3C//DTD SVG 1.1//EN" "http://www.w3.org/Graphics/SVG/1.1/DTD/svg11.dtd">
<svg version="1.1" id="Layer_4" xmlns="http://www.w3.org/2000/svg" xmlns:xlink="http://www.w3.org/1999/xlink" x="0px" y="0px"
	 width="44px" height="43.998px" viewBox="0 0 44 43.998" enable-background="new 0 0 44 43.998" xml:space="preserve">
<g id="Search_1_">
	<rect x="-15.154" y="42.507" fill="none" width="78" height="19.62"/>
	<text transform="matrix(1 0 0 1 14.2969 59.6606)" fill="#333333" font-family="'MuseoSansRounded-500'" font-size="9">Print</text>
	<g>
		<path fill="#2E008B" d="M30,18.002h-1v-5H15v5h-1c-2,0-3,1-3,3v6h4v6h14v-6h4v-6C33,19.002,32,18.002,30,18.002z M17,15.002h10v3
			H17V15.002z M27,31.002H17v-4v-2h10v2V31.002z M31,22.002H13v-1h18V22.002z"/>
		<rect x="18" y="26.002" fill="#2E008B" width="8" height="1"/>
		<rect x="18" y="28.002" fill="#2E008B" width="5" height="1"/>
	</g>
</g>
<g id="Search">
</g>
</svg>
