<?xml version="1.0" encoding="utf-8"?>
<!-- Generator: Adobe Illustrator 16.0.4, SVG Export Plug-In . SVG Version: 6.00 Build 0)  -->
<!DOCTYPE svg PUBLIC "-//W3C//DTD SVG 1.0//EN" "http://www.w3.org/TR/2001/REC-SVG-20010904/DTD/svg10.dtd">
<svg version="1.0" id="Layer_1" xmlns="http://www.w3.org/2000/svg" xmlns:xlink="http://www.w3.org/1999/xlink" x="0px" y="0px"
	 width="18px" height="18px" viewBox="0 0 18 18" enable-background="new 0 0 18 18" xml:space="preserve">
<g>
	<path fill="#FFFFFF" d="M1,9.308V8.722c0-1.055,0.557-1.612,1.612-1.612h4.396V2.187c0-1.055,0.557-1.611,1.611-1.611h0.762
		c1.056,0,1.611,0.557,1.611,1.611v4.923h4.396C16.442,7.109,17,7.667,17,8.722v0.586c0,1.055-0.558,1.611-1.611,1.611h-4.396v4.894
		c0,1.054-0.556,1.612-1.611,1.612H8.619c-1.055,0-1.611-0.559-1.611-1.612v-4.894H2.612C1.557,10.919,1,10.362,1,9.308z"/>
</g>
</svg>
